<svg xmlns="http://www.w3.org/2000/svg" viewBox="0 0 512 512" xmlns:v="https://vecta.io/nano"><path d="M479.971 32.18l-64.52 64.301c-1.05 1.23-2.26-.16-3.09-.85-24.511-23.98-54.58-42.281-87.221-52.84-37.6-12.16-78.449-14.07-117.029-5.59C139.441 51.871 79.3 101.26 51.671 165.81c.031.014.062.025.093.039a33.3 33.3 0 0 0-3.605 15.1c0 18.475 14.977 33.451 33.451 33.451 15.831 0 29.084-11.002 32.555-25.773 19.757-41.979 58.832-74.445 103.967-85.527 52.2-13.17 111.37 1.33 149.4 40.041l-66.33 65.26 178.59-.09.179-176.131zM431.609 297.5c-14.62 0-27.041 9.383-31.591 22.453-.009-.004-.019-.008-.027-.012-19.11 42.59-57.57 76.219-102.84 88.18-52.799 14.311-113.45.299-152.179-39.051l66.189-64.869-179.11.01L32.062 480l65.79-65.699c14.109 13.789 29.76 26.07 46.92 35.869 54.739 31.971 123.399 38.602 183.299 17.891 57.477-19.297 106.073-63.178 131.212-118.318 3.645-5.357 5.776-11.824 5.776-18.793.001-18.473-14.976-33.45-33.45-33.45z"/></svg>